<svg enable-background="new 0 0 256 256" viewBox="0 0 256 256" xmlns="http://www.w3.org/2000/svg"><circle cx="128" cy="128" fill="#f1c48b" r="104.245"/><path d="m186.218 190.555h-116.436c-6.733 0-12.191-5.458-12.191-12.191v-97.602c0-6.733 5.458-12.191 12.191-12.191h116.437c6.733 0 12.191 5.458 12.191 12.191v97.601c0 6.733-5.458 12.192-12.192 12.192z" fill="#fff"/><path d="m186.218 68.571h-17c6.733 0 12.191 5.458 12.191 12.191v97.601c0 6.733-5.458 12.191-12.191 12.191h17c6.733 0 12.191-5.458 12.191-12.191v-97.601c.001-6.733-5.457-12.191-12.191-12.191z" fill="#d4e7f8"/><path d="m186.218 68.571h-116.436c-6.733 0-12.191 5.458-12.191 12.191v18.6h140.82v-18.6c-.001-6.733-5.459-12.191-12.193-12.191z" fill="#fd919e"/><path d="m186.218 68.571h-17c6.733 0 12.191 5.458 12.191 12.191v18.6h17v-18.6c.001-6.733-5.457-12.191-12.191-12.191z" fill="#e8677d"/><path d="m198.41 102.362h-140.82c-1.657 0-3-1.343-3-3v-18.6c0-8.376 6.815-15.191 15.191-15.191h116.437c8.377 0 15.191 6.815 15.191 15.191v18.6c.001 1.657-1.342 3-2.999 3zm-137.82-6h134.82v-15.6c0-5.068-4.123-9.191-9.191-9.191h-116.437c-5.068 0-9.191 4.123-9.191 9.191v15.6z" fill="#4c4372"/><path d="m186.219 193.555h-116.437c-8.376 0-15.191-6.815-15.191-15.191v-97.602c0-8.376 6.815-15.191 15.191-15.191h116.437c8.377 0 15.191 6.815 15.191 15.191v97.601c0 8.377-6.814 15.192-15.191 15.192zm-116.437-121.984c-5.068 0-9.191 4.123-9.191 9.191v97.601c0 5.068 4.123 9.191 9.191 9.191h116.437c5.068 0 9.191-4.123 9.191-9.191v-97.601c0-5.068-4.123-9.191-9.191-9.191z" fill="#4c4372"/><path d="m92.47 83.696c-3.467 0-6.278-2.811-6.278-6.278v-17.694c0-3.467 2.811-6.278 6.278-6.278s6.278 2.811 6.278 6.278v17.694c0 3.467-2.811 6.278-6.278 6.278z" fill="#7bacf1"/><path d="m163.53 83.696c-3.467 0-6.278-2.811-6.278-6.278v-17.694c0-3.467 2.811-6.278 6.278-6.278s6.278 2.811 6.278 6.278v17.694c.001 3.467-2.81 6.278-6.278 6.278z" fill="#7bacf1"/><g fill="#4c4372"><path d="m92.47 86.696c-5.116 0-9.278-4.162-9.278-9.278v-17.694c0-5.116 4.162-9.278 9.278-9.278s9.278 4.162 9.278 9.278v17.694c0 5.116-4.162 9.278-9.278 9.278zm0-30.251c-1.808 0-3.278 1.471-3.278 3.278v17.694c0 1.808 1.471 3.278 3.278 3.278s3.278-1.471 3.278-3.278v-17.693c0-1.808-1.471-3.279-3.278-3.279z"/><path d="m163.53 86.696c-5.116 0-9.278-4.162-9.278-9.278v-17.694c0-5.116 4.162-9.278 9.278-9.278s9.278 4.162 9.278 9.278v17.694c.001 5.116-4.162 9.278-9.278 9.278zm0-30.251c-1.808 0-3.278 1.471-3.278 3.278v17.694c0 1.808 1.471 3.278 3.278 3.278s3.278-1.471 3.278-3.278v-17.693c.001-1.808-1.47-3.279-3.278-3.279z"/><path d="m126.175 138.078c3.139 3.074 4.675 7.172 4.675 11.207s-1.536 8.133-4.675 11.271c-3.074 3.074-7.172 4.675-11.271 4.675-4.035 0-8.133-1.601-11.207-4.675-1.409-1.409-1.409-3.714 0-5.123s3.714-1.409 5.123 0c1.665 1.665 3.842 2.498 6.084 2.498 2.241 0 4.419-.833 6.148-2.498 1.729-1.729 2.562-3.907 2.562-6.148 0-2.242-.833-4.419-2.562-6.084-1.665-1.729-3.843-2.498-6.084-2.562-1.024.064-1.985-.384-2.625-1.153-.064 0-.064 0-.064-.064-1.473-1.409-1.473-3.65-.128-5.124l6.532-6.66h-10.375c-1.985 0-3.586-1.601-3.586-3.65 0-1.985 1.601-3.586 3.586-3.586h18.892c2.049 0 3.65 1.601 3.65 3.586 0 .641-.191 1.217-.448 1.729-.191.32-.384.641-.64.897l-8.07 8.325c1.665.769 3.202 1.793 4.483 3.139z"/><path d="m154.288 123.988v37.784c0 1.985-1.665 3.522-3.587 3.522-1.984 0-3.521-1.537-3.521-3.522v-31.508l-2.562 1.473c-.577.384-1.217.512-1.794.512-1.217 0-2.369-.64-3.01-1.793-1.089-1.601-.512-3.842 1.153-4.803l7.877-4.675c.063-.064.191-.064.256-.128.128 0 .192-.128.32-.192.128 0 .256-.064.384-.064.064-.064.192-.064.257-.064.128-.064.32-.064.448-.064h.191.064.448c.064.064.192.064.256.064.192 0 .257.064.385.128.063 0 .192 0 .256.064.192.128.256.192.385.192.063.064.128.128.256.192.064.064.192.128.256.192.128.064.192.192.257.256.063.064.128.128.191.256.064.064.192.192.257.256l.063.128c0 .064.064.128.064.192.063.128.128.192.128.32.064.128.064.256.128.32 0 .128.064.256.064.32 0 .192 0 .32.128.448.002.066.002.13.002.194z"/></g></svg>