<svg enable-background="new 0 0 256 256" viewBox="0 0 256 256" xmlns="http://www.w3.org/2000/svg"><circle cx="128" cy="128" fill="#f1c48b" r="104.245"/><circle cx="128" cy="149.797" fill="#d3e6f7" r="74.805"/><path d="m128 74.992c-2.18 0-4.332.113-6.465.296 38.284 3.28 68.34 35.375 68.34 74.509s-30.056 71.229-68.34 74.509c2.132.183 4.285.296 6.465.296 41.314 0 74.805-33.491 74.805-74.805 0-41.313-33.491-74.805-74.805-74.805z" fill="#a3d0f1"/><g fill="#4c4372"><path d="m128 123.622c-24.571 0-47.128-5.733-61.888-15.729-.676-.458-1.137-1.172-1.275-1.977s.059-1.632.544-2.289c14.628-19.809 38.037-31.635 62.619-31.635s47.991 11.826 62.619 31.635c.485.657.682 1.484.544 2.289s-.599 1.519-1.274 1.977c-14.76 9.996-37.318 15.729-61.889 15.729zm-55.82-18.979c13.685 8.164 34.236 12.979 55.82 12.979s42.136-4.815 55.82-12.979c-13.579-16.745-34.209-26.651-55.82-26.651s-42.241 9.906-55.82 26.651z"/><path d="m128 227.603c-24.582 0-47.991-11.826-62.619-31.635-.485-.657-.682-1.484-.544-2.289s.599-1.519 1.275-1.977c14.759-9.996 37.317-15.729 61.888-15.729s47.129 5.733 61.889 15.729c.676.458 1.137 1.172 1.274 1.977s-.059 1.632-.544 2.289c-14.628 19.808-38.037 31.635-62.619 31.635zm-55.82-32.651c13.579 16.745 34.209 26.651 55.82 26.651s42.241-9.906 55.82-26.651c-13.685-8.164-34.236-12.979-55.82-12.979s-42.136 4.815-55.82 12.979z"/><path d="m128 227.603c-42.902 0-77.805-34.903-77.805-77.805s34.903-77.806 77.805-77.806c42.901 0 77.805 34.903 77.805 77.805s-34.904 77.806-77.805 77.806zm0-149.611c-39.593 0-71.805 32.212-71.805 71.805s32.212 71.806 71.805 71.806 71.805-32.212 71.805-71.805-32.212-71.806-71.805-71.806z"/><path d="m128 227.603c-22.656 0-40.402-34.176-40.402-77.805s17.746-77.806 40.402-77.806c22.655 0 40.402 34.176 40.402 77.805s-17.747 77.806-40.402 77.806zm0-149.611c-18.648 0-34.402 32.883-34.402 71.805s15.754 71.805 34.402 71.805 34.402-32.883 34.402-71.805-15.754-71.805-34.402-71.805z"/><path d="m202.805 152.797h-149.61c-1.657 0-3-1.343-3-3s1.343-3 3-3h149.61c1.657 0 3 1.343 3 3s-1.343 3-3 3z"/><path d="m128 227.603c-1.657 0-3-1.343-3-3v-149.611c0-1.657 1.343-3 3-3s3 1.343 3 3v149.61c0 1.657-1.343 3.001-3 3.001z"/></g><path d="m128 31.397c-22.895 0-37.204 24.785-25.757 44.612l25.757 44.613 25.757-44.612c11.447-19.828-2.862-44.613-25.757-44.613zm0 43.029c-7.688 0-13.92-6.232-13.92-13.92s6.232-13.92 13.92-13.92 13.92 6.232 13.92 13.92-6.232 13.92-13.92 13.92z" fill="#fd919e"/><path d="m128 123.622c-1.072 0-2.062-.572-2.598-1.5l-25.757-44.612c-5.918-10.251-5.918-22.491 0-32.742s16.518-16.371 28.354-16.371 22.437 6.12 28.354 16.371c5.919 10.251 5.919 22.491 0 32.742l-25.757 44.612c-.533.928-1.524 1.5-2.596 1.5zm0-89.225c-9.667 0-18.325 4.999-23.159 13.371-4.833 8.373-4.834 18.369 0 26.742l23.159 40.112 23.159-40.112c4.833-8.373 4.833-18.369-.001-26.742-4.834-8.372-13.491-13.371-23.158-13.371zm0 43.029c-9.33 0-16.92-7.59-16.92-16.92s7.59-16.919 16.92-16.919 16.92 7.59 16.92 16.919-7.59 16.92-16.92 16.92zm0-27.84c-6.021 0-10.92 4.898-10.92 10.919s4.898 10.92 10.92 10.92 10.92-4.898 10.92-10.92c0-6.02-4.899-10.919-10.92-10.919z" fill="#4c4372"/></svg>