<svg enable-background="new 0 0 256 256" viewBox="0 0 256 256" xmlns="http://www.w3.org/2000/svg"><circle cx="128" cy="128" fill="#f1c48b" r="104.245"/><circle cx="128" cy="128" fill="#d3e6f7" r="71"/><path d="m128 57c-2.069 0-4.112.108-6.136.281 36.337 3.113 64.864 33.576 64.864 70.719s-28.527 67.606-64.864 70.719c2.024.173 4.067.281 6.136.281 39.212 0 71-31.788 71-71s-31.788-71-71-71z" fill="#a3d0f1"/><path d="m123.617 198.852c1.451.088 2.91.148 4.383.148 28.852 0 53.667-17.22 64.774-41.934l-25.11-25.11c-2.533-2.533-5.968-3.956-9.55-3.956h-3.132c-7.459 0-13.506 6.047-13.506 13.506 0 3.582-1.423 7.017-3.956 9.55l-9.948 9.948c-2.533 2.533-3.956 5.968-3.956 9.55v28.298z" fill="#a3d0f1"/><path d="m132.228 198.864c.817-.048 1.631-.11 2.44-.185.298-.028.598-.052.895-.084 1.057-.112 2.108-.243 3.15-.4.177-.027.351-.061.527-.089.875-.139 1.745-.295 2.609-.466.34-.067.678-.138 1.016-.211.751-.16 1.497-.333 2.238-.517.298-.074.597-.142.894-.22.973-.254 1.939-.528 2.895-.822.303-.093.602-.197.904-.294.682-.22 1.361-.448 2.034-.688.382-.136.763-.275 1.142-.418.633-.238 1.26-.488 1.884-.743.336-.138.676-.269 1.009-.411.86-.367 1.709-.753 2.551-1.153.407-.193.807-.397 1.21-.598.495-.247.988-.498 1.477-.756.437-.231.874-.464 1.306-.704.458-.254.909-.518 1.361-.782.75-.439 1.492-.891 2.224-1.357.397-.252.795-.501 1.186-.76.484-.321.961-.653 1.436-.985.316-.221.631-.445.944-.671.495-.359.989-.719 1.474-1.09.202-.154.399-.314.599-.471 1.032-.806 2.041-1.638 3.026-2.499.142-.124.287-.245.428-.371.526-.467 1.042-.943 1.554-1.425.157-.148.312-.297.468-.446 1.697-1.628 3.316-3.337 4.846-5.126.031-.037.063-.073.095-.109.52-.611 1.03-1.231 1.529-1.859.035-.044.07-.089.105-.134 3.611-4.564 6.675-9.582 9.09-14.954v-.001l-8.941-8.942c-7.96 26.967-31.512 47.225-60.216 50.402v.311c.276.018.551.041.828.056.274.014.547.029.822.04.907.039 1.817.067 2.733.067 1.099 0 2.191-.033 3.278-.083.318-.013.634-.033.95-.052z" fill="#7bacf1"/><path d="m147.503 59.735c-6.199-1.768-12.736-2.735-19.503-2.735-26.508 0-49.607 14.538-61.803 36.065l9.041 7.925c1.578 1.383 2.483 3.38 2.483 5.478v7.82c0 4.023 3.262 7.285 7.285 7.285 4.023 0 7.285 3.262 7.285 7.285v6.022c0 3.062 1.915 5.797 4.792 6.845l10.7 3.897c4.752 1.731 9.778-1.788 9.778-6.845v-24.194c0-2.228 1.02-4.334 2.768-5.715l24.406-19.291c1.748-1.382 2.768-3.487 2.768-5.715z" fill="#a3d0f1"/><path d="m198.553 120.111c-1.6-14.463-7.544-27.608-16.498-38.118l-10.599 6.745c-4.076 2.594-5.12 8.087-2.281 11.995l4.411 6.072c1.04 1.432 1.6 3.156 1.6 4.925 0 4.628 3.752 8.38 8.38 8.38h14.987z" fill="#a3d0f1"/><path d="m173.843 87.22c6.69 9.51 11.09 20.738 12.435 32.891h12.276c0-.001 0-.002 0-.003-.178-1.609-.418-3.198-.702-4.772-.046-.256-.088-.514-.137-.769-.132-.691-.278-1.377-.43-2.06-.064-.288-.131-.576-.199-.863-.165-.699-.333-1.396-.519-2.087-.018-.068-.039-.134-.057-.202-.419-1.543-.891-3.064-1.41-4.564-.046-.133-.089-.268-.136-.401-.246-.696-.505-1.385-.772-2.071-.084-.217-.17-.434-.256-.65-.279-.697-.563-1.391-.863-2.076-.019-.042-.038-.084-.057-.126-1.007-2.29-2.133-4.515-3.367-6.671-.076-.132-.151-.264-.227-.396-.401-.69-.811-1.375-1.234-2.05 0 0 0-.001-.001-.001-1.354-2.16-2.824-4.24-4.396-6.235-.052-.066-.104-.133-.156-.199-.515-.649-1.04-1.29-1.577-1.921 0 0 0 0 0-.001z" fill="#7bacf1"/><g fill="#4c4372"><path d="m128 202c-1.395 0-2.846-.049-4.565-.153-1.583-.097-2.817-1.409-2.817-2.995v-28.298c0-4.409 1.717-8.554 4.835-11.671l9.947-9.947c1.984-1.984 3.077-4.623 3.077-7.429 0-9.102 7.404-16.506 16.506-16.506h3.132c4.408 0 8.553 1.717 11.671 4.834l25.11 25.111c.881.881 1.126 2.214.615 3.351-11.932 26.548-38.432 43.703-67.511 43.703zm-1.383-6.017c.475.011.933.017 1.383.017 26.034 0 49.819-14.965 61.166-38.3l-23.623-23.624c-1.984-1.984-4.623-3.077-7.429-3.077h-3.132c-5.793 0-10.506 4.713-10.506 10.506 0 4.41-1.717 8.555-4.835 11.672l-9.947 9.947c-1.984 1.984-3.077 4.623-3.077 7.429z"/><path d="m110.286 149.068c-1.199 0-2.386-.211-3.529-.627l-10.7-3.897c-4.046-1.474-6.765-5.357-6.765-9.664v-6.021c0-2.363-1.922-4.285-4.285-4.285-5.671 0-10.285-4.614-10.285-10.285v-7.82c0-1.234-.532-2.409-1.46-3.223l-9.042-7.925c-1.069-.938-1.334-2.497-.633-3.734 13.134-23.185 37.815-37.587 64.413-37.587 6.856 0 13.695.959 20.326 2.85 1.288.367 2.177 1.545 2.177 2.885v24.127c0 3.166-1.424 6.106-3.907 8.069l-24.406 19.29c-1.035.818-1.628 2.043-1.628 3.362v24.194c0 2.799-1.1 5.413-3.097 7.358-1.942 1.891-4.491 2.933-7.179 2.933zm-40.241-56.62 7.171 6.286c2.228 1.953 3.505 4.771 3.505 7.734v7.82c0 2.363 1.922 4.285 4.285 4.285 5.671 0 10.285 4.614 10.285 10.285v6.021c0 1.794 1.133 3.412 2.819 4.026l10.7 3.897c.482.176.979.265 1.475.265 1.098 0 2.189-.449 2.992-1.231.828-.806 1.283-1.893 1.283-3.06v-24.194c0-3.165 1.424-6.106 3.907-8.069l24.406-19.291c1.035-.818 1.628-2.042 1.628-3.361v-21.824c-5.407-1.352-10.948-2.037-16.501-2.037-23.629 0-45.614 12.372-57.955 32.448z"/><path d="m198.554 123.111h-14.986c-6.274 0-11.38-5.105-11.38-11.38 0-1.143-.355-2.236-1.027-3.162l-4.411-6.072c-1.838-2.53-2.557-5.743-1.973-8.814s2.432-5.796 5.07-7.475l10.599-6.745c1.261-.805 2.924-.554 3.894.585 9.625 11.297 15.571 25.037 17.196 39.734.094.848-.178 1.695-.746 2.331-.57.635-1.383.998-2.236.998zm-17.131-37.159-8.355 5.317c-1.265.806-2.116 2.061-2.396 3.535s.051 2.954.933 4.167l4.41 6.072c1.422 1.957 2.174 4.27 2.174 6.688 0 2.967 2.413 5.38 5.38 5.38h11.553c-1.833-11.39-6.521-22.06-13.699-31.159z"/><path d="m128 202c-40.804 0-74-33.196-74-74s33.196-74 74-74 74 33.196 74 74-33.196 74-74 74zm0-142c-37.495 0-68 30.505-68 68s30.505 68 68 68 68-30.505 68-68-30.505-68-68-68z"/><path d="m128.2 217.198c-23.038 0-45.84-8.963-63.137-26.261-29.305-29.304-34.689-74.41-13.093-109.69.865-1.414 2.71-1.858 4.125-.992 1.413.865 1.857 2.712.992 4.125-20.143 32.906-15.118 74.979 12.218 102.315 27.336 27.337 69.409 32.361 102.315 12.218 1.415-.865 3.26-.421 4.125.992s.421 3.26-.992 4.125c-14.455 8.848-30.562 13.167-46.553 13.168z"/><path d="m201.468 176.187c-.534 0-1.074-.143-1.563-.442-1.413-.865-1.857-2.712-.992-4.125 20.143-32.905 15.119-74.979-12.217-102.315-27.337-27.336-69.412-32.36-102.315-12.218-1.413.867-3.26.421-4.125-.992s-.421-3.26.992-4.125c35.28-21.595 80.386-16.212 109.69 13.093 29.305 29.304 34.688 74.411 13.092 109.69-.566.924-1.552 1.434-2.562 1.434z"/></g><circle cx="194.602" cy="193.404" fill="#fd919e" r="10.404"/><path d="m194.603 206.808c-7.392 0-13.404-6.013-13.404-13.404s6.012-13.404 13.404-13.404c7.391 0 13.403 6.013 13.403 13.404s-6.013 13.404-13.403 13.404zm0-20.808c-4.083 0-7.404 3.322-7.404 7.404s3.321 7.404 7.404 7.404c4.082 0 7.403-3.321 7.403-7.404s-3.321-7.404-7.403-7.404z" fill="#4c4372"/></svg>