<svg enable-background="new 0 0 256 256" viewBox="0 0 256 256" xmlns="http://www.w3.org/2000/svg"><circle cx="128" cy="128" fill="#f1c48b" r="104.245"/><path d="m119.41 168.537c-1.332-5.563-6.008-9.284-11.143-8.869l-11.26.911c-7.278.589-13.826-4.928-15.33-12.915-2.441-12.967-2.441-26.36 0-39.327 1.503-7.987 8.051-13.504 15.33-12.915l11.26.91c5.135.415 9.811-3.306 11.143-8.869l6.132-25.608c1.767-7.379-2.995-14.704-9.816-15.097l-9.388-.541c-14.1-.813-27.714 6.192-36.138 18.865-7.292 10.97-14.365 27.431-17.033 51.559-.833 7.54-.833 15.18 0 22.719 2.667 24.128 9.741 40.588 17.033 51.559 8.424 12.673 22.037 19.678 36.137 18.865 3.12-.18 6.367-.367 9.394-.542 6.821-.393 11.578-7.717 9.811-15.097z" fill="#d4e7f8"/><path d="m101.937 46.758c6.821.393 11.583 7.718 9.816 15.097l-6.132 25.608c-.918 3.832-3.422 6.789-6.571 8.123l9.218.745c5.135.415 9.811-3.306 11.143-8.869l6.132-25.608c1.767-7.38-2.995-14.704-9.816-15.097l-9.388-.541c-2.623-.151-5.228-.03-7.787.346z" fill="#a3d0f1"/><path d="m125.543 194.145-6.132-25.608c-1.332-5.563-6.008-9.284-11.143-8.869l-9.218.745c3.148 1.334 5.653 4.291 6.571 8.123l6.132 25.608c1.767 7.38-2.99 14.704-9.811 15.097-1.106.064-2.245.129-3.392.196 2.559.376 5.165.497 7.788.346 3.12-.18 6.367-.367 9.394-.542 6.821-.392 11.578-7.716 9.811-15.096z" fill="#a3d0f1"/><path d="m104.13 212.847c-.001 0-.002 0-.003 0-14.373 0-27.99-7.578-36.425-20.269-9.288-13.972-15.182-31.767-17.516-52.889-.858-7.756-.858-15.623 0-23.379 2.334-21.123 8.228-38.917 17.516-52.89 8.436-12.691 22.053-20.268 36.425-20.268.791 0 1.593.023 2.384.068l9.389.542c3.874.223 7.494 2.233 9.933 5.515 2.791 3.755 3.749 8.595 2.629 13.276l-6.133 25.608c-1.666 6.954-7.649 11.705-14.303 11.161l-11.26-.911c-5.75-.468-10.935 4.083-12.14 10.48-2.387 12.679-2.387 25.538 0 38.217 1.205 6.397 6.391 10.942 12.14 10.48l11.26-.911c6.655-.536 12.638 4.207 14.303 11.161l6.133 25.607c1.121 4.683.163 9.523-2.628 13.279-2.438 3.28-6.057 5.289-9.929 5.512l-9.394.542c-.791.046-1.592.069-2.381.069zm-.003-163.694c-12.358 0-24.107 6.575-31.429 17.589-8.752 13.167-14.32 30.066-16.549 50.228-.81 7.319-.81 14.741 0 22.061 2.229 20.162 7.797 37.061 16.549 50.227 7.321 11.014 19.07 17.589 31.43 17.59h.003c.677 0 1.354-.019 2.034-.059l9.394-.542c2.125-.123 4.063-1.224 5.459-3.101 1.702-2.292 2.304-5.396 1.607-8.303l-6.133-25.607c-.978-4.087-4.307-6.874-7.983-6.578l-11.259.911c-8.843.707-16.753-5.961-18.521-15.351-2.525-13.417-2.525-27.021 0-40.437 1.768-9.39 9.675-16.063 18.521-15.351l11.26.911c3.657.295 7.005-2.49 7.982-6.578l6.133-25.607c.696-2.905.095-6.008-1.608-8.3-1.396-1.878-3.337-2.98-5.463-3.103l-9.389-.542c-.681-.039-1.36-.058-2.038-.058z" fill="#4c4372"/><path d="m124.995 101.296h78.463v53.409h-78.463z" fill="#a3d0f1"/><path d="m195.24 101.296h8.217v53.409h-8.217z" fill="#7bacf1"/><path d="m164.226 141.352-13.077-13.352-26.154 26.704h78.462l-26.154-26.704z" fill="#7bacf1"/><path d="m124.995 101.296 39.231 40.056 39.231-40.056z" fill="#d3e6f7"/><g fill="#4c4372"><path d="m203.457 157.704h-78.462c-1.657 0-3-1.343-3-3v-53.408c0-1.657 1.343-3 3-3h78.462c1.657 0 3 1.343 3 3v53.408c0 1.657-1.343 3-3 3zm-75.462-6h72.462v-47.408h-72.462z"/><path d="m203.477 157.704c-.006 0-.014 0-.02 0h-78.462c-1.208 0-2.298-.724-2.766-1.837s-.223-2.399.622-3.262l26.154-26.704c1.129-1.152 3.158-1.152 4.287 0l10.934 11.164 10.933-11.164c1.129-1.152 3.158-1.152 4.287 0l25.959 26.505c.655.55 1.071 1.375 1.071 2.298.001 1.657-1.342 3-2.999 3zm-71.344-6h64.187l-19.017-19.417-10.933 11.164c-1.129 1.152-3.158 1.152-4.287 0l-10.934-11.164z"/><path d="m164.227 144.352c-.807 0-1.579-.325-2.144-.901l-39.231-40.056c-.845-.863-1.09-2.148-.622-3.262s1.558-1.837 2.766-1.837h78.462c1.208 0 2.298.724 2.766 1.837s.223 2.399-.622 3.262l-39.23 40.056c-.566.576-1.339.901-2.145.901zm-32.094-40.056 32.094 32.769 32.093-32.769z"/></g></svg>