<svg enable-background="new 0 0 256 256" viewBox="0 0 256 256" xmlns="http://www.w3.org/2000/svg"><circle cx="128" cy="128" fill="#f1c48b" r="104.245"/><path d="m156.069 210.342h-56.138v-6.626c0-3.905 3.166-7.071 7.071-7.071h41.996c3.906 0 7.072 3.166 7.072 7.071v6.626z" fill="#fd919e"/><path d="m192.119 172.584h-128.238c-3.862 0-6.993-3.131-6.993-6.993v-92.94c0-3.862 3.131-6.993 6.993-6.993h128.238c3.862 0 6.993 3.131 6.993 6.993v92.94c0 3.863-3.131 6.993-6.993 6.993z" fill="#7bacf1"/><path d="m56.888 152.421v13.171c0 3.862 3.131 6.993 6.993 6.993h128.238c3.862 0 6.993-3.131 6.993-6.993v-13.171z" fill="#fd919e"/><path d="m148.998 196.644h-11.584c3.905 0 7.072 3.166 7.072 7.072v6.626h11.584v-6.626c-.001-3.906-3.167-7.072-7.072-7.072z" fill="#e8677d"/><path d="m118.198 172.584h19.604v24.059h-19.604z" fill="#e8677d"/><path d="m183.666 152.421v13.171c0 3.862-3.131 6.993-6.993 6.993h15.446c3.862 0 6.993-3.131 6.993-6.993v-13.171z" fill="#e8677d"/><g fill="#4c4372"><path d="m192.119 175.584h-128.238c-5.511 0-9.993-4.483-9.993-9.993v-13.171c0-1.657 1.343-3 3-3h142.225c1.657 0 3 1.343 3 3v13.171c-.001 5.511-4.483 9.993-9.994 9.993zm-132.231-20.164v10.171c0 2.202 1.791 3.993 3.993 3.993h128.238c2.202 0 3.993-1.792 3.993-3.993v-10.171z"/><path d="m192.119 175.584h-128.238c-5.511 0-9.993-4.483-9.993-9.993v-92.94c0-5.51 4.482-9.993 9.993-9.993h128.238c5.511 0 9.993 4.483 9.993 9.993v92.94c0 5.511-4.482 9.993-9.993 9.993zm-128.238-106.925c-2.202 0-3.993 1.791-3.993 3.993v92.94c0 2.202 1.791 3.993 3.993 3.993h128.238c2.202 0 3.993-1.792 3.993-3.993v-92.94c0-2.202-1.791-3.993-3.993-3.993z"/><path d="m137.802 199.644h-19.604c-1.657 0-3-1.343-3-3v-24.06c0-1.657 1.343-3 3-3h19.604c1.657 0 3 1.343 3 3v24.06c0 1.657-1.343 3-3 3zm-16.604-6h13.604v-18.06h-13.604z"/><path d="m156.069 213.341h-56.138c-1.657 0-3-1.343-3-3v-6.626c0-5.553 4.518-10.071 10.071-10.071h41.996c5.554 0 10.071 4.518 10.071 10.071v6.626c0 1.657-1.342 3-3 3zm-53.138-6h50.139v-3.626c0-2.245-1.826-4.071-4.071-4.071h-41.996c-2.245 0-4.071 1.826-4.071 4.071v3.626z"/><path d="m110.705 105.713-6.863 16.333c-.028.084-.084.196-.14.252l-.028.028c-.028.056-.084.112-.141.168 0 .056-.027.056-.027.084-.057.028-.141.084-.196.14h-.028c-.084.056-.14.14-.252.168h-.028s-.027 0-.027.028c-.057 0-.141.028-.225.056-.028 0-.056 0-.056 0-.084.028-.168.028-.28.028-.084 0-.168 0-.252-.028-.057 0-.084 0-.084 0-.084-.028-.141-.056-.196-.056-.028-.028-.028-.028-.057-.028-.111-.028-.195-.112-.252-.168-.027 0-.027 0-.027 0-.085-.056-.141-.112-.196-.14-.028-.028-.028-.028-.057-.084-.027-.056-.084-.112-.111-.168-.057 0-.057-.028-.057-.028-.056-.056-.084-.168-.111-.252l-3.671-8.685-3.67 8.685c-.027.084-.084.196-.111.252-.028 0-.028.028-.028.028-.056.056-.112.112-.168.168 0 .056-.028.056-.028.084-.056.028-.112.084-.168.14-.056 0-.056 0-.056 0-.084.056-.168.14-.225.168-.028 0-.028 0-.028 0s-.027 0-.027.028c-.112 0-.168.028-.225.056-.027 0-.056 0-.084 0-.084.028-.168.028-.252.028s-.196 0-.28-.028c-.028 0-.056 0-.084 0-.084-.028-.14-.056-.196-.056-.027-.028-.027-.028-.056-.028-.084-.028-.196-.112-.252-.168-.028 0-.028 0-.028 0-.084-.056-.112-.112-.196-.14-.027-.028-.027-.028-.056-.084-.057-.056-.084-.112-.141-.168v-.028c-.056-.056-.084-.168-.14-.252l-6.892-16.333c-.309-.756.028-1.681.84-1.989.757-.336 1.682.028 1.989.813l5.491 12.971 3.614-8.601c.252-.616.84-.952 1.456-.952.589 0 1.177.336 1.457.952l3.614 8.601 5.463-12.971c.336-.785 1.232-1.149 2.045-.813.757.308 1.121 1.233.784 1.989z"/><path d="m141.304 105.713-6.863 16.333c-.028.084-.084.196-.141.252l-.027.028c-.028.056-.084.112-.141.168 0 .056-.027.056-.027.084-.057.028-.141.084-.196.14h-.028c-.084.056-.14.14-.252.168h-.029s-.027 0-.027.028c-.057 0-.141.028-.225.056-.028 0-.056 0-.056 0-.084.028-.168.028-.28.028-.084 0-.168 0-.252-.028-.057 0-.084 0-.084 0-.084-.028-.141-.056-.196-.056-.028-.028-.028-.028-.057-.028-.111-.028-.195-.112-.252-.168-.027 0-.027 0-.027 0-.084-.056-.141-.112-.196-.14-.028-.028-.028-.028-.057-.084-.027-.056-.084-.112-.111-.168-.057 0-.057-.028-.057-.028-.056-.056-.084-.168-.112-.252l-3.67-8.685-3.67 8.685c-.027.084-.084.196-.111.252-.028 0-.028.028-.028.028-.056.056-.112.112-.168.168 0 .056-.028.056-.028.084-.056.028-.112.084-.168.14-.056 0-.056 0-.056 0-.084.056-.169.14-.225.168-.028 0-.028 0-.028 0s-.027 0-.027.028c-.112 0-.168.028-.225.056-.027 0-.056 0-.084 0-.084.028-.168.028-.252.028s-.196 0-.28-.028c-.028 0-.056 0-.084 0-.084-.028-.14-.056-.196-.056-.027-.028-.027-.028-.056-.028-.084-.028-.196-.112-.252-.168-.028 0-.028 0-.028 0-.084-.056-.112-.112-.196-.14-.028-.028-.028-.028-.056-.084-.057-.056-.084-.112-.141-.168v-.028c-.056-.056-.084-.168-.14-.252l-6.892-16.333c-.309-.756.027-1.681.84-1.989.757-.336 1.682.028 1.989.813l5.491 12.971 3.614-8.601c.252-.616.84-.952 1.456-.952.589 0 1.177.336 1.457.952l3.614 8.601 5.463-12.971c.336-.785 1.232-1.149 2.045-.813.757.308 1.122 1.233.785 1.989z"/><path d="m171.901 105.713-6.863 16.333c-.028.084-.084.196-.141.252l-.027.028c-.028.056-.084.112-.141.168 0 .056-.027.056-.027.084-.057.028-.141.084-.196.14h-.028c-.084.056-.14.14-.252.168h-.028s-.027 0-.027.028c-.057 0-.141.028-.225.056-.028 0-.056 0-.056 0-.084.028-.168.028-.28.028-.084 0-.168 0-.252-.028-.057 0-.084 0-.084 0-.084-.028-.141-.056-.196-.056-.028-.028-.028-.028-.057-.028-.111-.028-.195-.112-.252-.168-.027 0-.027 0-.027 0-.084-.056-.141-.112-.196-.14-.028-.028-.028-.028-.057-.084-.027-.056-.084-.112-.111-.168-.057 0-.057-.028-.057-.028-.056-.056-.084-.168-.112-.252l-3.67-8.685-3.67 8.685c-.027.084-.084.196-.111.252-.028 0-.028.028-.028.028-.056.056-.112.112-.168.168 0 .056-.028.056-.028.084-.056.028-.112.084-.168.14-.056 0-.056 0-.056 0-.084.056-.169.14-.225.168-.028 0-.028 0-.028 0s-.027 0-.027.028c-.112 0-.168.028-.225.056-.027 0-.056 0-.084 0-.084.028-.168.028-.252.028s-.196 0-.28-.028c-.028 0-.056 0-.084 0-.084-.028-.14-.056-.196-.056-.027-.028-.027-.028-.056-.028-.084-.028-.196-.112-.252-.168-.028 0-.028 0-.028 0-.084-.056-.112-.112-.196-.14-.028-.028-.028-.028-.056-.084-.057-.056-.084-.112-.141-.168v-.028c-.056-.056-.084-.168-.14-.252l-6.892-16.333c-.309-.756.027-1.681.84-1.989.757-.336 1.682.028 1.989.813l5.491 12.971 3.614-8.601c.252-.616.84-.952 1.456-.952.589 0 1.177.336 1.457.952l3.614 8.601 5.463-12.971c.336-.785 1.232-1.149 2.045-.813.757.308 1.121 1.233.784 1.989z"/></g></svg>