<svg enable-background="new 0 0 256 256" viewBox="0 0 256 256" xmlns="http://www.w3.org/2000/svg"><circle cx="128" cy="128" fill="#f1c48b" r="104.245"/><path d="m156.069 210.342h-56.138v-6.626c0-3.905 3.166-7.071 7.071-7.071h41.996c3.906 0 7.072 3.166 7.072 7.071v6.626z" fill="#fd919e"/><path d="m192.119 172.584h-128.238c-3.862 0-6.993-3.131-6.993-6.993v-92.94c0-3.862 3.131-6.993 6.993-6.993h128.238c3.862 0 6.993 3.131 6.993 6.993v92.94c0 3.863-3.131 6.993-6.993 6.993z" fill="#7bacf1"/><path d="m56.888 152.421v13.171c0 3.862 3.131 6.993 6.993 6.993h128.238c3.862 0 6.993-3.131 6.993-6.993v-13.171z" fill="#fd919e"/><path d="m148.998 196.644h-11.584c3.905 0 7.072 3.166 7.072 7.072v6.626h11.584v-6.626c-.001-3.906-3.167-7.072-7.072-7.072z" fill="#e8677d"/><path d="m118.198 172.585h19.604v24.059h-19.604z" fill="#e8677d"/><path d="m183.666 152.421v13.171c0 3.862-3.131 6.993-6.993 6.993h15.446c3.862 0 6.993-3.131 6.993-6.993v-13.171z" fill="#e8677d"/><g fill="#4c4372"><path d="m192.119 175.584h-128.238c-5.511 0-9.993-4.482-9.993-9.993v-13.17c0-1.657 1.343-3 3-3h142.225c1.657 0 3 1.343 3 3v13.17c-.001 5.511-4.483 9.993-9.994 9.993zm-132.231-20.163v10.17c0 2.202 1.791 3.993 3.993 3.993h128.238c2.202 0 3.993-1.791 3.993-3.993v-10.17z"/><path d="m192.119 175.584h-128.238c-5.511 0-9.993-4.483-9.993-9.993v-92.94c0-5.51 4.482-9.993 9.993-9.993h128.238c5.511 0 9.993 4.483 9.993 9.993v92.939c0 5.511-4.482 9.994-9.993 9.994zm-128.238-106.925c-2.202 0-3.993 1.791-3.993 3.993v92.939c0 2.202 1.791 3.993 3.993 3.993h128.238c2.202 0 3.993-1.791 3.993-3.993v-92.94c0-2.202-1.791-3.993-3.993-3.993h-128.238z"/><path d="m137.802 199.644h-19.604c-1.657 0-3-1.343-3-3v-24.06c0-1.657 1.343-3 3-3h19.604c1.657 0 3 1.343 3 3v24.06c0 1.657-1.343 3-3 3zm-16.604-6h13.604v-18.06h-13.604z"/><path d="m156.069 213.342h-56.138c-1.657 0-3-1.343-3-3v-6.626c0-5.554 4.518-10.072 10.071-10.072h41.996c5.554 0 10.071 4.519 10.071 10.072v6.626c0 1.657-1.342 3-3 3zm-53.138-6h50.139v-3.626c0-2.245-1.826-4.072-4.071-4.072h-41.996c-2.245 0-4.071 1.827-4.071 4.072v3.626z"/></g><circle cx="128" cy="110.667" fill="#fd919e" r="30.333"/><path d="m128 144c-18.38 0-33.333-14.953-33.333-33.333s14.953-33.333 33.333-33.333 33.333 14.953 33.333 33.333-14.953 33.333-33.333 33.333zm0-60.667c-15.071 0-27.333 12.262-27.333 27.333 0 15.072 12.262 27.334 27.333 27.334s27.333-12.262 27.333-27.333c0-15.072-12.262-27.334-27.333-27.334z" fill="#4c4372"/><path d="m130.975 96.52c0 1.653-1.267 3.03-2.976 3.03-1.652 0-2.975-1.377-2.975-3.03v-1.157c0-1.653 1.322-2.976 2.975-2.976 1.709 0 2.976 1.323 2.976 2.976zm0 9.973v21.489c0 1.653-1.267 2.976-2.976 2.976-1.652 0-2.975-1.322-2.975-2.976v-21.489c0-1.763 1.322-3.03 2.975-3.03 1.71-.001 2.976 1.266 2.976 3.03z" fill="#4c4372"/></svg>