<svg enable-background="new 0 0 64 64" height="64" viewBox="0 0 64 64" width="64" xmlns="http://www.w3.org/2000/svg"><path clip-rule="evenodd" d="m21.986 40.006c1.102 0 1.993.893 1.993 1.993s-.892 1.992-1.993 1.992c-1.1 0-1.992-.892-1.992-1.992s.893-1.993 1.992-1.993zm-5.841-5.707c-1.261-8.749 4.81-16.862 13.559-18.123s16.863 4.81 18.124 13.559-4.81 16.863-13.559 18.124c-.098.015-.192.015-.289.026l.296-.041c-1.094.157-2.106-.602-2.265-1.695-.157-1.093.602-2.108 1.695-2.267l-.003-.007h.008c6.56-.945 11.109-7.028 10.164-13.588-.945-6.561-7.027-11.11-13.588-10.165-6.557.945-11.11 7.028-10.164 13.588 0 .003 0 .005.002.005l-.007.003c.157 1.093-.602 2.106-1.695 2.264-1.093.157-2.108-.601-2.267-1.694l.044.298c-.014-.098-.041-.19-.055-.287zm31.844-21.294c0-1.658 1.346-3.004 3.006-3.004 1.642 0 2.973 1.318 2.999 2.958v.094c-.026 1.64-1.357 2.958-2.999 2.958-1.66-0-3.006-1.346-3.006-3.006zm10.672 45.515c-3.478 3.514-8.304 5.48-16.649 5.48h-20.026c-8.345 0-13.17-1.966-16.646-5.48-3.432-3.466-5.34-8.304-5.34-16.506v-20.026c0-8.205 1.908-13.04 5.34-16.506 3.476-3.515 8.301-5.482 16.646-5.482h20.025c8.346 0 13.171 1.967 16.649 5.482.223.223.427.468.633.71.422.366.695.902.695 1.505 0 1.105-.895 2-2 2-.604 0-1.14-.274-1.506-.698l-.026.021c-.206-.245-.399-.499-.627-.728-3.042-3.076-7.533-4.283-14.837-4.283h-17.995c-7.302 0-11.784 1.207-14.826 4.283-3.003 3.033-4.171 7.536-4.171 14.713v17.997c0 7.18 1.168 11.671 4.171 14.703 3.042 3.075 7.524 4.295 14.826 4.295h17.997c7.304 0 11.795-1.22 14.837-4.295 3.003-3.032 4.159-7.523 4.159-14.703v-17.996c0-1.748-.072-3.333-.218-4.78l.009-.002c-.108-1.103.691-2.089 1.796-2.206 1.107-.114 2.1.69 2.213 1.795.003.029 0 .056 0 .085h.005c.121 1.274.205 2.609.205 4.09v20.025c0 8.203-1.91 13.041-5.339 16.507z" fill-rule="evenodd"/></svg>