<svg clip-rule="evenodd" fill-rule="evenodd" height="2048" image-rendering="optimizeQuality" shape-rendering="geometricPrecision" text-rendering="geometricPrecision" viewBox="0 0 2048 2048" width="2048" xmlns="http://www.w3.org/2000/svg" xmlns:xlink="http://www.w3.org/1999/xlink"><clipPath id="a"><path d="m1024-.0011811c565.541 0 1024 458.461 1024 1024 0 565.541-458.461 1024-1024 1024-565.541 0-1024-458.461-1024-1024 0-565.541 458.461-1024 1024-1024z"/></clipPath><path d="m1024-.0011811c565.541 0 1024 458.461 1024 1024 0 565.541-458.461 1024-1024 1024-565.541 0-1024-458.461-1024-1024 0-565.541 458.461-1024 1024-1024z" fill="#ef5350"/><g clip-path="url(#a)" fill="#e53935"><path d="m1584 463.999 1135.88 1135.881v23.34l-1135.88-1135.887z"/><path d="m1584 487.333 1135.88 1135.887v1073.33l-1135.88-1135.88z"/><path d="m1584 1560.67 1135.88 1135.88v23.33l-1135.88-1135.88z"/><path d="m1584 1584 1135.88 1135.88h-23.33l-1135.88-1135.88z"/><path d="m1560.67 1584 1135.88 1135.88h-1073.34l-1135.877-1135.88z"/><path d="m487.333 1584 1135.877 1135.88h-23.33l-1135.881-1135.88z"/><path d="m487.333 463.999h1073.337 23.33v23.334 1073.337 23.33h-23.33-1073.337-23.334v-23.33-1073.337-23.334z"/></g><path d="m1024-.0011811c565.541 0 1024 458.461 1024 1024 0 565.541-458.461 1024-1024 1024-565.541 0-1024-458.461-1024-1024 0-565.541 458.461-1024 1024-1024z" fill="none"/><path d="m487.333 463.999h1073.337 23.33v23.334 1073.337 23.33h-23.33-1073.337-23.334v-23.33-1073.337-23.334z" fill="#546e7a"/><path d="m510.665 510.665v1026.665h1026.665v-1026.665z" fill="#bbdefb"/><path d="m822.264 652.799c35.4851 0 67.6146 14.3858 90.8729 37.6429 23.2571 23.2571 37.6429 55.3878 37.6429 90.8741 0 35.4851-14.3858 67.6146-37.6429 90.8729-23.2583 23.2571-55.3878 37.6429-90.8729 37.6429-35.4862 0-67.617-14.387-90.8729-37.6429-23.2583-23.2583-37.6441-55.3878-37.6441-90.8729 0-35.4862 14.387-67.617 37.6441-90.8741 23.2559-23.2559 55.3867-37.6429 90.8729-37.6429z" fill="#ff6f00"/><path d="m1037.78 992.945 158.87 441.045 7.63 21.18h-25.59-188.403-216.936-29.645-.103l280.097-501.313.25.694z" fill="#263238"/><path d="m1299.17 793.973 227.25 630.897 10.91 30.3h-36.6-269.5-310.32-42.407-.148l400.675-717.112.36.994z" fill="#37474f"/><path d="m510.665 1480.41v56.9197h1026.67v-83.0906c-104.184-48.0461-284.697-79.8213-489.965-79.8213-240.594 0-447.186 43.6489-536.703 105.992z" fill="#7cb342"/></svg>